<svg width="112" height="20" viewBox="0 0 112 20" fill="none" xmlns="http://www.w3.org/2000/svg">
<path fill-rule="evenodd" clip-rule="evenodd" d="M1 0H19C19.5523 0 20 0.447715 20 1V19C20 19.5523 19.5523 20 19 20H1C0.447715 20 0 19.5523 0 19V1C0 0.447715 0.447715 0 1 0ZM17.9996 18.1016H15.1582V10.3891L17.9996 6.22838V18.1016ZM14.9554 2H17.9998C15.6545 5.72088 14.4707 7.62689 14.4482 7.71711L10.017 14.2794H9.91556L4.84143 6.66842V18.1018H1.99998V2H5.04441L9.98301 9.71272L14.9554 2Z" fill="white"/>
<path d="M28.0504 2.95455H30.1527L35.0959 15.0284H35.2663L40.2095 2.95455H42.3118V17.5H40.6641V6.44886H40.522L35.9766 17.5H34.3857L29.8402 6.44886H29.6982V17.5H28.0504V2.95455Z" fill="white"/>
<path d="M45.6161 17.5V6.59091H47.2923V17.5H45.6161ZM46.4684 4.77273C46.1417 4.77273 45.86 4.66146 45.6232 4.43892C45.3912 4.21638 45.2752 3.94886 45.2752 3.63636C45.2752 3.32386 45.3912 3.05634 45.6232 2.83381C45.86 2.61127 46.1417 2.5 46.4684 2.5C46.7951 2.5 47.0745 2.61127 47.3065 2.83381C47.5432 3.05634 47.6616 3.32386 47.6616 3.63636C47.6616 3.94886 47.5432 4.21638 47.3065 4.43892C47.0745 4.66146 46.7951 4.77273 46.4684 4.77273Z" fill="white"/>
<path d="M52.0384 10.9375V17.5H50.3622V6.59091H51.9815V8.29545H52.1236C52.3793 7.74148 52.7675 7.2964 53.2884 6.96023C53.8092 6.61932 54.4815 6.44886 55.3054 6.44886C56.044 6.44886 56.6903 6.60038 57.2443 6.90341C57.7983 7.2017 58.2292 7.65625 58.5369 8.26705C58.8447 8.87311 58.9986 9.64015 58.9986 10.5682V17.5H57.3224V10.6818C57.3224 9.82481 57.0999 9.1572 56.6548 8.67898C56.2098 8.19602 55.599 7.95455 54.8224 7.95455C54.2874 7.95455 53.8092 8.07055 53.3878 8.30256C52.9711 8.53456 52.642 8.87311 52.4006 9.31818C52.1591 9.76326 52.0384 10.303 52.0384 10.9375Z" fill="white"/>
<path d="M62.0614 17.5V6.59091H63.7376V17.5H62.0614ZM62.9137 4.77273C62.587 4.77273 62.3053 4.66146 62.0685 4.43892C61.8365 4.21638 61.7205 3.94886 61.7205 3.63636C61.7205 3.32386 61.8365 3.05634 62.0685 2.83381C62.3053 2.61127 62.587 2.5 62.9137 2.5C63.2404 2.5 63.5198 2.61127 63.7518 2.83381C63.9885 3.05634 64.1069 3.32386 64.1069 3.63636C64.1069 3.94886 63.9885 4.21638 63.7518 4.43892C63.5198 4.66146 63.2404 4.77273 62.9137 4.77273Z" fill="white"/>
<path d="M80.6143 6.59091C80.5291 5.87121 80.1835 5.3125 79.5774 4.91477C78.9714 4.51705 78.228 4.31818 77.3473 4.31818C76.7034 4.31818 76.1399 4.42235 75.657 4.63068C75.1787 4.83901 74.8047 5.12547 74.5348 5.49006C74.2697 5.85464 74.1371 6.26894 74.1371 6.73295C74.1371 7.12121 74.2294 7.45502 74.4141 7.73438C74.6035 8.009 74.8449 8.23864 75.1385 8.4233C75.4321 8.60322 75.7398 8.75237 76.0618 8.87074C76.3838 8.98437 76.6797 9.0767 76.9496 9.14773L78.4268 9.54545C78.8056 9.64489 79.227 9.7822 79.6911 9.95739C80.1598 10.1326 80.6072 10.3717 81.0334 10.6747C81.4643 10.973 81.8194 11.3565 82.0987 11.8253C82.3781 12.294 82.5178 12.8693 82.5178 13.5511C82.5178 14.3371 82.3118 15.0473 81.8999 15.6818C81.4927 16.3163 80.8961 16.8205 80.1101 17.1946C79.3288 17.5687 78.3795 17.7557 77.2621 17.7557C76.2204 17.7557 75.3184 17.5876 74.5561 17.2514C73.7985 16.9152 73.2019 16.4465 72.7663 15.8452C72.3355 15.2438 72.0916 14.5455 72.0348 13.75H73.853C73.9003 14.2992 74.085 14.7538 74.407 15.1136C74.7337 15.4687 75.1456 15.7339 75.6428 15.9091C76.1447 16.0795 76.6844 16.1648 77.2621 16.1648C77.9344 16.1648 78.5381 16.0559 79.0732 15.8381C79.6082 15.6155 80.032 15.3078 80.3445 14.9148C80.657 14.517 80.8132 14.053 80.8132 13.5227C80.8132 13.0398 80.6783 12.6468 80.4084 12.3438C80.1385 12.0407 79.7834 11.7945 79.343 11.6051C78.9027 11.4157 78.4268 11.25 77.9155 11.108L76.1257 10.5966C74.9893 10.2699 74.0897 9.8035 73.4268 9.19744C72.764 8.59138 72.4325 7.7983 72.4325 6.81818C72.4325 6.00379 72.6527 5.29356 73.093 4.6875C73.5381 4.0767 74.1347 3.60322 74.8828 3.26705C75.6357 2.92614 76.4761 2.75568 77.4041 2.75568C78.3416 2.75568 79.175 2.92377 79.9041 3.25994C80.6333 3.59138 81.2109 4.04593 81.6371 4.62358C82.0679 5.20123 82.2952 5.85701 82.3189 6.59091H80.6143Z" fill="white"/>
<path d="M85.1864 17.5V6.59091H86.8626V17.5H85.1864ZM86.0387 4.77273C85.712 4.77273 85.4303 4.66146 85.1935 4.43892C84.9615 4.21638 84.8455 3.94886 84.8455 3.63636C84.8455 3.32386 84.9615 3.05634 85.1935 2.83381C85.4303 2.61127 85.712 2.5 86.0387 2.5C86.3654 2.5 86.6448 2.61127 86.8768 2.83381C87.1135 3.05634 87.2319 3.32386 87.2319 3.63636C87.2319 3.94886 87.1135 4.21638 86.8768 4.43892C86.6448 4.66146 86.3654 4.77273 86.0387 4.77273Z" fill="white"/>
<path d="M94.0518 17.7273C93.1428 17.7273 92.3402 17.4976 91.6442 17.0384C90.9481 16.5743 90.4036 15.9209 90.0107 15.0781C89.6177 14.2306 89.4212 13.2292 89.4212 12.0739C89.4212 10.928 89.6177 9.93371 90.0107 9.09091C90.4036 8.24811 90.9505 7.59706 91.6513 7.13778C92.352 6.6785 93.1617 6.44886 94.0803 6.44886C94.7905 6.44886 95.3516 6.56723 95.7635 6.80398C96.1802 7.03598 96.4974 7.30114 96.7152 7.59943C96.9377 7.89299 97.1106 8.13447 97.2337 8.32386H97.3757V2.95455H99.0518V17.5H97.4325V15.8239H97.2337C97.1106 16.0227 96.9354 16.2737 96.7081 16.5767C96.4808 16.875 96.1565 17.1425 95.7351 17.3793C95.3137 17.6113 94.7526 17.7273 94.0518 17.7273ZM94.2791 16.2216C94.9515 16.2216 95.5197 16.0464 95.9837 15.696C96.4477 15.3409 96.8004 14.8509 97.0419 14.2259C97.2834 13.5961 97.4041 12.8693 97.4041 12.0455C97.4041 11.2311 97.2857 10.5185 97.049 9.90767C96.8123 9.29214 96.4619 8.81392 95.9979 8.47301C95.5339 8.12737 94.9609 7.95455 94.2791 7.95455C93.5689 7.95455 92.977 8.13684 92.5035 8.50142C92.0348 8.86127 91.6821 9.35133 91.4453 9.97159C91.2133 10.5871 91.0973 11.2784 91.0973 12.0455C91.0973 12.822 91.2157 13.5275 91.4524 14.1619C91.6939 14.7917 92.049 15.2936 92.5178 15.6676C92.9912 16.0369 93.5784 16.2216 94.2791 16.2216Z" fill="white"/>
<path d="M106.928 17.7273C105.877 17.7273 104.97 17.4953 104.208 17.0312C103.451 16.5625 102.866 15.9091 102.454 15.071C102.047 14.2282 101.843 13.2481 101.843 12.1307C101.843 11.0133 102.047 10.0284 102.454 9.17614C102.866 8.31913 103.439 7.65152 104.173 7.1733C104.911 6.69034 105.773 6.44886 106.758 6.44886C107.326 6.44886 107.887 6.54356 108.441 6.73295C108.995 6.92235 109.499 7.23011 109.954 7.65625C110.408 8.07765 110.771 8.63636 111.04 9.33239C111.31 10.0284 111.445 10.8854 111.445 11.9034V12.6136H103.036V11.1648H109.741C109.741 10.5492 109.618 10 109.371 9.51705C109.13 9.03409 108.784 8.65294 108.335 8.37358C107.889 8.09422 107.364 7.95455 106.758 7.95455C106.09 7.95455 105.513 8.12026 105.025 8.4517C104.542 8.77841 104.17 9.20455 103.91 9.73011C103.649 10.2557 103.519 10.8191 103.519 11.4205V12.3864C103.519 13.2102 103.661 13.9086 103.945 14.4815C104.234 15.0497 104.634 15.483 105.146 15.7812C105.657 16.0748 106.251 16.2216 106.928 16.2216C107.369 16.2216 107.766 16.16 108.121 16.0369C108.481 15.9091 108.791 15.7197 109.052 15.4688C109.312 15.2131 109.513 14.8958 109.656 14.517L111.275 14.9716C111.104 15.5208 110.818 16.0038 110.415 16.4205C110.013 16.8324 109.516 17.1544 108.924 17.3864C108.332 17.6136 107.667 17.7273 106.928 17.7273Z" fill="white"/>
</svg>
